<svg xmlns="http://www.w3.org/2000/svg" width="512" height="512" viewBox="0 0 512 512">
  <defs>
    <radialGradient id="poz" cx="50%" cy="30%" r="85%">
      <stop offset="0%" stop-color="#9B1A1A"/>
      <stop offset="58%" stop-color="#7F0909"/>
      <stop offset="100%" stop-color="#520303"/>
    </radialGradient>
  </defs>
  <rect width="512" height="512" fill="url(#poz)"/>
  <g transform="translate(81,74.75) scale(2.5)">
    <!-- шtit -->
    <path d="M70 10C88 18 108 21 124 21v41c0 33-23 54-54 74C39 116 16 95 16 62V21c16 0 36-3 54-11z"
          fill="#F5ECD4" stroke="#D3A625" stroke-width="5" stroke-linejoin="round"/>
    <path d="M70 16.5c16 7 34 10 48 10.3V61.5C118 91 98 110 70 128.5 42 110 22 91 22 61.5V26.8c14-.3 32-3.3 48-10.3z"
          fill="none" stroke="#8A6420" stroke-width="1.4" opacity=".8"/>
    <path d="M34 30l1.7 4 4 1.7-4 1.7-1.7 4-1.7-4-4-1.7 4-1.7z" fill="#A9711B"/>
    <path d="M106 30l1.7 4 4 1.7-4 1.7-1.7 4-1.7-4-4-1.7 4-1.7z" fill="#A9711B"/>
    <!-- lav: griva -->
    <g fill="#A9711B">
      <circle cx="90" cy="60" r="10.5"/><circle cx="86.2" cy="71.7" r="10.5"/><circle cx="76.2" cy="76.2" r="10.5"/>
      <circle cx="63.8" cy="76.2" r="10.5"/><circle cx="53.8" cy="71.7" r="10.5"/><circle cx="50" cy="60" r="10.5"/>
      <circle cx="53.8" cy="48.3" r="10.5"/><circle cx="63.8" cy="43.8" r="10.5"/><circle cx="76.2" cy="43.8" r="10.5"/>
      <circle cx="86.2" cy="48.3" r="10.5"/><circle cx="70" cy="60" r="22.5"/>
    </g>
    <!-- lav: lice -->
    <circle cx="59.5" cy="46.5" r="5" fill="#E6B94D"/><circle cx="59.5" cy="46.5" r="2.3" fill="#8F5C10"/>
    <circle cx="80.5" cy="46.5" r="5" fill="#E6B94D"/><circle cx="80.5" cy="46.5" r="2.3" fill="#8F5C10"/>
    <circle cx="70" cy="60" r="16.5" fill="#E6B94D"/>
    <circle cx="63.8" cy="57.5" r="2" fill="#4A3008"/><circle cx="76.2" cy="57.5" r="2" fill="#4A3008"/>
    <ellipse cx="70" cy="65.5" rx="6.2" ry="4.8" fill="#F4D98D"/>
    <path d="M66.6 62.8h6.8L70 67.4z" fill="#4A3008" stroke="#4A3008" stroke-width="1" stroke-linejoin="round"/>
    <path d="M70 67.4v1.7m0 0c-1.2 1.5-3.2 1.6-4.4.3M70 69.1c1.2 1.5 3.2 1.6 4.4.3"
          fill="none" stroke="#4A3008" stroke-width="1.3" stroke-linecap="round"/>
    <!-- zastavica 5/4 -->
    <polygon points="30,120 16,120 22,126 16,132 30,132" fill="#5C0000" stroke="#D3A625" stroke-width="1.6" stroke-linejoin="round"/>
    <polygon points="110,120 124,120 118,126 124,132 110,132" fill="#5C0000" stroke="#D3A625" stroke-width="1.6" stroke-linejoin="round"/>
    <rect x="28" y="118" width="84" height="16" rx="2.5" fill="#5C0000" stroke="#D3A625" stroke-width="1.6"/>
    <text x="70" y="130.4" text-anchor="middle" font-family="Georgia, 'Times New Roman', serif" font-weight="700"
          font-size="11" letter-spacing="2" fill="#F0C75E">5/4</text>
  </g>
</svg>
